<?xml version="1.0" encoding="UTF-8" standalone="no"?>
<!DOCTYPE svg PUBLIC "-//W3C//DTD SVG 1.1//EN"
 "http://www.w3.org/Graphics/SVG/1.1/DTD/svg11.dtd">
<!-- Generated by graphviz version 2.43.0 (0)
 -->
<!-- Title: %3 Pages: 1 -->
<svg width="1440pt" height="620pt"
 viewBox="0.00 0.00 1440.38 620.00" xmlns="http://www.w3.org/2000/svg" xmlns:xlink="http://www.w3.org/1999/xlink">
<g id="graph0" class="graph" transform="scale(1 1) rotate(0) translate(4 616)">
<title>%3</title>
<polygon fill="white" stroke="transparent" points="-4,4 -4,-616 1436.38,-616 1436.38,4 -4,4"/>
<!-- [root] aws_eip.nat_gateway (expand) -->
<g id="node1" class="node">
<title>[root] aws_eip.nat_gateway (expand)</title>
<polygon fill="none" stroke="black" points="408.88,-180 241.88,-180 241.88,-144 408.88,-144 408.88,-180"/>
<text text-anchor="middle" x="325.38" y="-158.3" font-family="Times,serif" font-size="14.00">aws_eip.nat_gateway</text>
</g>
<!-- [root] provider[&quot;registry.terraform.io/hashicorp/aws&quot;] -->
<g id="node14" class="node">
<title>[root] provider[&quot;registry.terraform.io/hashicorp/aws&quot;]</title>
<polygon fill="none" stroke="black" points="325.38,-108 0.12,-90 325.38,-72 650.65,-90 325.38,-108"/>
<text text-anchor="middle" x="325.38" y="-86.3" font-family="Times,serif" font-size="14.00">provider[&quot;registry.terraform.io/hashicorp/aws&quot;]</text>
</g>
<!-- [root] aws_eip.nat_gateway (expand)&#45;&gt;[root] provider[&quot;registry.terraform.io/hashicorp/aws&quot;] -->
<g id="edge1" class="edge">
<title>[root] aws_eip.nat_gateway (expand)&#45;&gt;[root] provider[&quot;registry.terraform.io/hashicorp/aws&quot;]</title>
<path fill="none" stroke="black" d="M325.38,-143.7C325.38,-135.98 325.38,-126.71 325.38,-118.11"/>
<polygon fill="black" stroke="black" points="328.88,-118.1 325.38,-108.1 321.88,-118.1 328.88,-118.1"/>
</g>
<!-- [root] aws_instance.demo&#45;ec2 (expand) -->
<g id="node2" class="node">
<title>[root] aws_instance.demo&#45;ec2 (expand)</title>
<polygon fill="none" stroke="black" points="846.38,-396 662.38,-396 662.38,-360 846.38,-360 846.38,-396"/>
<text text-anchor="middle" x="754.38" y="-374.3" font-family="Times,serif" font-size="14.00">aws_instance.demo&#45;ec2</text>
</g>
<!-- [root] aws_security_group.web_server (expand) -->
<g id="node9" class="node">
<title>[root] aws_security_group.web_server (expand)</title>
<polygon fill="none" stroke="black" points="607.38,-252 363.38,-252 363.38,-216 607.38,-216 607.38,-252"/>
<text text-anchor="middle" x="485.38" y="-230.3" font-family="Times,serif" font-size="14.00">aws_security_group.web_server</text>
</g>
<!-- [root] aws_instance.demo&#45;ec2 (expand)&#45;&gt;[root] aws_security_group.web_server (expand) -->
<g id="edge2" class="edge">
<title>[root] aws_instance.demo&#45;ec2 (expand)&#45;&gt;[root] aws_security_group.web_server (expand)</title>
<path fill="none" stroke="black" d="M662.35,-370.49C595.03,-363.62 511.72,-350.04 489.38,-324 475.1,-307.36 475.41,-281.86 478.53,-262.42"/>
<polygon fill="black" stroke="black" points="482.02,-262.81 480.48,-252.33 475.14,-261.48 482.02,-262.81"/>
</g>
<!-- [root] aws_subnet.demo_public (expand) -->
<g id="node11" class="node">
<title>[root] aws_subnet.demo_public (expand)</title>
<polygon fill="none" stroke="black" points="917.38,-252 723.38,-252 723.38,-216 917.38,-216 917.38,-252"/>
<text text-anchor="middle" x="820.38" y="-230.3" font-family="Times,serif" font-size="14.00">aws_subnet.demo_public</text>
</g>
<!-- [root] aws_instance.demo&#45;ec2 (expand)&#45;&gt;[root] aws_subnet.demo_public (expand) -->
<g id="edge3" class="edge">
<title>[root] aws_instance.demo&#45;ec2 (expand)&#45;&gt;[root] aws_subnet.demo_public (expand)</title>
<path fill="none" stroke="black" d="M846.8,-368.24C874.62,-360.77 902.28,-347.46 919.38,-324 928.81,-311.07 927.6,-301.73 919.38,-288 911.37,-274.62 898.7,-264.43 885.07,-256.74"/>
<polygon fill="black" stroke="black" points="886.5,-253.54 876.01,-252.04 883.27,-259.75 886.5,-253.54"/>
</g>
<!-- [root] var.aws_ami_id -->
<g id="node15" class="node">
<title>[root] var.aws_ami_id</title>
<polygon fill="none" stroke="black" points="904.38,-324 786.38,-324 786.38,-288 910.38,-288 910.38,-318 904.38,-324"/>
<polyline fill="none" stroke="black" points="904.38,-324 904.38,-318 "/>
<polyline fill="none" stroke="black" points="910.38,-318 904.38,-318 "/>
<text text-anchor="middle" x="848.38" y="-302.3" font-family="Times,serif" font-size="14.00">var.aws_ami_id</text>
</g>
<!-- [root] aws_instance.demo&#45;ec2 (expand)&#45;&gt;[root] var.aws_ami_id -->
<g id="edge4" class="edge">
<title>[root] aws_instance.demo&#45;ec2 (expand)&#45;&gt;[root] var.aws_ami_id</title>
<path fill="none" stroke="black" d="M777.62,-359.7C789.57,-350.8 804.3,-339.82 817.23,-330.2"/>
<polygon fill="black" stroke="black" points="819.48,-332.88 825.41,-324.1 815.3,-327.27 819.48,-332.88"/>
</g>
<!-- [root] var.instance_type -->
<g id="node17" class="node">
<title>[root] var.instance_type</title>
<polygon fill="none" stroke="black" points="1101.88,-324 966.88,-324 966.88,-288 1107.88,-288 1107.88,-318 1101.88,-324"/>
<polyline fill="none" stroke="black" points="1101.88,-324 1101.88,-318 "/>
<polyline fill="none" stroke="black" points="1107.88,-318 1101.88,-318 "/>
<text text-anchor="middle" x="1037.38" y="-302.3" font-family="Times,serif" font-size="14.00">var.instance_type</text>
</g>
<!-- [root] aws_instance.demo&#45;ec2 (expand)&#45;&gt;[root] var.instance_type -->
<g id="edge5" class="edge">
<title>[root] aws_instance.demo&#45;ec2 (expand)&#45;&gt;[root] var.instance_type</title>
<path fill="none" stroke="black" d="M823.25,-359.97C864.08,-349.87 915.98,-337.03 958.46,-326.52"/>
<polygon fill="black" stroke="black" points="959.34,-329.91 968.21,-324.11 957.66,-323.11 959.34,-329.91"/>
</g>
<!-- [root] var.key_name -->
<g id="node18" class="node">
<title>[root] var.key_name</title>
<polygon fill="none" stroke="black" points="605.88,-324 498.88,-324 498.88,-288 611.88,-288 611.88,-318 605.88,-324"/>
<polyline fill="none" stroke="black" points="605.88,-324 605.88,-318 "/>
<polyline fill="none" stroke="black" points="611.88,-318 605.88,-318 "/>
<text text-anchor="middle" x="555.38" y="-302.3" font-family="Times,serif" font-size="14.00">var.key_name</text>
</g>
<!-- [root] aws_instance.demo&#45;ec2 (expand)&#45;&gt;[root] var.key_name -->
<g id="edge6" class="edge">
<title>[root] aws_instance.demo&#45;ec2 (expand)&#45;&gt;[root] var.key_name</title>
<path fill="none" stroke="black" d="M705.96,-359.97C678.15,-350.19 643.05,-337.84 613.73,-327.52"/>
<polygon fill="black" stroke="black" points="614.62,-324.13 604.03,-324.11 612.3,-330.73 614.62,-324.13"/>
</g>
<!-- [root] var.local_ssh_key -->
<g id="node19" class="node">
<title>[root] var.local_ssh_key</title>
<polygon fill="none" stroke="black" points="762.38,-324 630.38,-324 630.38,-288 768.38,-288 768.38,-318 762.38,-324"/>
<polyline fill="none" stroke="black" points="762.38,-324 762.38,-318 "/>
<polyline fill="none" stroke="black" points="768.38,-318 762.38,-318 "/>
<text text-anchor="middle" x="699.38" y="-302.3" font-family="Times,serif" font-size="14.00">var.local_ssh_key</text>
</g>
<!-- [root] aws_instance.demo&#45;ec2 (expand)&#45;&gt;[root] var.local_ssh_key -->
<g id="edge7" class="edge">
<title>[root] aws_instance.demo&#45;ec2 (expand)&#45;&gt;[root] var.local_ssh_key</title>
<path fill="none" stroke="black" d="M740.79,-359.7C734.26,-351.39 726.31,-341.28 719.14,-332.14"/>
<polygon fill="black" stroke="black" points="721.75,-329.81 712.82,-324.1 716.25,-334.13 721.75,-329.81"/>
</g>
<!-- [root] aws_internet_gateway.gw (expand) -->
<g id="node3" class="node">
<title>[root] aws_internet_gateway.gw (expand)</title>
<polygon fill="none" stroke="black" points="1309.88,-252 1110.88,-252 1110.88,-216 1309.88,-216 1309.88,-252"/>
<text text-anchor="middle" x="1210.38" y="-230.3" font-family="Times,serif" font-size="14.00">aws_internet_gateway.gw</text>
</g>
<!-- [root] aws_vpc.ec2_demo_vpc (expand) -->
<g id="node12" class="node">
<title>[root] aws_vpc.ec2_demo_vpc (expand)</title>
<polygon fill="none" stroke="black" points="823.38,-180 641.38,-180 641.38,-144 823.38,-144 823.38,-180"/>
<text text-anchor="middle" x="732.38" y="-158.3" font-family="Times,serif" font-size="14.00">aws_vpc.ec2_demo_vpc</text>
</g>
<!-- [root] aws_internet_gateway.gw (expand)&#45;&gt;[root] aws_vpc.ec2_demo_vpc (expand) -->
<g id="edge8" class="edge">
<title>[root] aws_internet_gateway.gw (expand)&#45;&gt;[root] aws_vpc.ec2_demo_vpc (expand)</title>
<path fill="none" stroke="black" d="M1110.76,-218.41C1029.55,-206.52 915.34,-189.79 833.68,-177.83"/>
<polygon fill="black" stroke="black" points="833.79,-174.31 823.39,-176.33 832.78,-181.24 833.79,-174.31"/>
</g>
<!-- [root] aws_nat_gateway.nat_gateway (expand) -->
<g id="node4" class="node">
<title>[root] aws_nat_gateway.nat_gateway (expand)</title>
<polygon fill="none" stroke="black" points="441.88,-324 208.88,-324 208.88,-288 441.88,-288 441.88,-324"/>
<text text-anchor="middle" x="325.38" y="-302.3" font-family="Times,serif" font-size="14.00">aws_nat_gateway.nat_gateway</text>
</g>
<!-- [root] aws_nat_gateway.nat_gateway (expand)&#45;&gt;[root] aws_eip.nat_gateway (expand) -->
<g id="edge9" class="edge">
<title>[root] aws_nat_gateway.nat_gateway (expand)&#45;&gt;[root] aws_eip.nat_gateway (expand)</title>
<path fill="none" stroke="black" d="M325.38,-287.87C325.38,-263.67 325.38,-219.21 325.38,-190.39"/>
<polygon fill="black" stroke="black" points="328.88,-190.19 325.38,-180.19 321.88,-190.19 328.88,-190.19"/>
</g>
<!-- [root] aws_nat_gateway.nat_gateway (expand)&#45;&gt;[root] aws_subnet.demo_public (expand) -->
<g id="edge10" class="edge">
<title>[root] aws_nat_gateway.nat_gateway (expand)&#45;&gt;[root] aws_subnet.demo_public (expand)</title>
<path fill="none" stroke="black" d="M442.06,-288.5C524.16,-276.89 633.2,-261.47 713.12,-250.17"/>
<polygon fill="black" stroke="black" points="713.8,-253.61 723.21,-248.74 712.82,-246.68 713.8,-253.61"/>
</g>
<!-- [root] aws_route_table.private_route_table (expand) -->
<g id="node5" class="node">
<title>[root] aws_route_table.private_route_table (expand)</title>
<polygon fill="none" stroke="black" points="498.88,-396 223.88,-396 223.88,-360 498.88,-360 498.88,-396"/>
<text text-anchor="middle" x="361.38" y="-374.3" font-family="Times,serif" font-size="14.00">aws_route_table.private_route_table</text>
</g>
<!-- [root] aws_route_table.private_route_table (expand)&#45;&gt;[root] aws_nat_gateway.nat_gateway (expand) -->
<g id="edge11" class="edge">
<title>[root] aws_route_table.private_route_table (expand)&#45;&gt;[root] aws_nat_gateway.nat_gateway (expand)</title>
<path fill="none" stroke="black" d="M352.48,-359.7C348.38,-351.73 343.43,-342.1 338.89,-333.26"/>
<polygon fill="black" stroke="black" points="341.86,-331.4 334.18,-324.1 335.64,-334.6 341.86,-331.4"/>
</g>
<!-- [root] aws_route_table.public_route_table (expand) -->
<g id="node6" class="node">
<title>[root] aws_route_table.public_route_table (expand)</title>
<polygon fill="none" stroke="black" points="1432.38,-396 1164.38,-396 1164.38,-360 1432.38,-360 1432.38,-396"/>
<text text-anchor="middle" x="1298.38" y="-374.3" font-family="Times,serif" font-size="14.00">aws_route_table.public_route_table</text>
</g>
<!-- [root] aws_route_table.public_route_table (expand)&#45;&gt;[root] aws_internet_gateway.gw (expand) -->
<g id="edge12" class="edge">
<title>[root] aws_route_table.public_route_table (expand)&#45;&gt;[root] aws_internet_gateway.gw (expand)</title>
<path fill="none" stroke="black" d="M1287.77,-359.87C1272.5,-335.24 1244.24,-289.64 1226.42,-260.88"/>
<polygon fill="black" stroke="black" points="1229.28,-258.85 1221.03,-252.19 1223.33,-262.53 1229.28,-258.85"/>
</g>
<!-- [root] aws_route_table_association.private_1 (expand) -->
<g id="node7" class="node">
<title>[root] aws_route_table_association.private_1 (expand)</title>
<polygon fill="none" stroke="black" points="536.38,-468 246.38,-468 246.38,-432 536.38,-432 536.38,-468"/>
<text text-anchor="middle" x="391.38" y="-446.3" font-family="Times,serif" font-size="14.00">aws_route_table_association.private_1</text>
</g>
<!-- [root] aws_route_table_association.private_1 (expand)&#45;&gt;[root] aws_route_table.private_route_table (expand) -->
<g id="edge13" class="edge">
<title>[root] aws_route_table_association.private_1 (expand)&#45;&gt;[root] aws_route_table.private_route_table (expand)</title>
<path fill="none" stroke="black" d="M383.97,-431.7C380.59,-423.81 376.51,-414.3 372.76,-405.55"/>
<polygon fill="black" stroke="black" points="375.87,-403.92 368.71,-396.1 369.43,-406.67 375.87,-403.92"/>
</g>
<!-- [root] aws_subnet.demo_private (expand) -->
<g id="node10" class="node">
<title>[root] aws_subnet.demo_private (expand)</title>
<polygon fill="none" stroke="black" points="288.88,-252 87.88,-252 87.88,-216 288.88,-216 288.88,-252"/>
<text text-anchor="middle" x="188.38" y="-230.3" font-family="Times,serif" font-size="14.00">aws_subnet.demo_private</text>
</g>
<!-- [root] aws_route_table_association.private_1 (expand)&#45;&gt;[root] aws_subnet.demo_private (expand) -->
<g id="edge14" class="edge">
<title>[root] aws_route_table_association.private_1 (expand)&#45;&gt;[root] aws_subnet.demo_private (expand)</title>
<path fill="none" stroke="black" d="M270.89,-431.92C249.68,-424 229.57,-412.54 214.38,-396 180.89,-359.52 181.03,-297.73 184.47,-262.25"/>
<polygon fill="black" stroke="black" points="187.97,-262.47 185.62,-252.14 181.02,-261.68 187.97,-262.47"/>
</g>
<!-- [root] aws_route_table_association.public_1 (expand) -->
<g id="node8" class="node">
<title>[root] aws_route_table_association.public_1 (expand)</title>
<polygon fill="none" stroke="black" points="1249.38,-468 967.38,-468 967.38,-432 1249.38,-432 1249.38,-468"/>
<text text-anchor="middle" x="1108.38" y="-446.3" font-family="Times,serif" font-size="14.00">aws_route_table_association.public_1</text>
</g>
<!-- [root] aws_route_table_association.public_1 (expand)&#45;&gt;[root] aws_route_table.public_route_table (expand) -->
<g id="edge15" class="edge">
<title>[root] aws_route_table_association.public_1 (expand)&#45;&gt;[root] aws_route_table.public_route_table (expand)</title>
<path fill="none" stroke="black" d="M1154.86,-431.88C1181.3,-422.14 1214.58,-409.87 1242.45,-399.61"/>
<polygon fill="black" stroke="black" points="1243.88,-402.81 1252.05,-396.07 1241.46,-396.24 1243.88,-402.81"/>
</g>
<!-- [root] aws_route_table_association.public_1 (expand)&#45;&gt;[root] aws_subnet.demo_public (expand) -->
<g id="edge16" class="edge">
<title>[root] aws_route_table_association.public_1 (expand)&#45;&gt;[root] aws_subnet.demo_public (expand)</title>
<path fill="none" stroke="black" d="M1116.26,-431.57C1129.57,-399.17 1151.89,-329.21 1117.38,-288 1093.21,-259.13 1002.48,-245.97 927.6,-239.98"/>
<polygon fill="black" stroke="black" points="927.86,-236.49 917.62,-239.22 927.32,-243.47 927.86,-236.49"/>
</g>
<!-- [root] aws_security_group.web_server (expand)&#45;&gt;[root] aws_vpc.ec2_demo_vpc (expand) -->
<g id="edge17" class="edge">
<title>[root] aws_security_group.web_server (expand)&#45;&gt;[root] aws_vpc.ec2_demo_vpc (expand)</title>
<path fill="none" stroke="black" d="M545.49,-215.97C580.75,-205.97 625.47,-193.3 662.33,-182.85"/>
<polygon fill="black" stroke="black" points="663.34,-186.2 672,-180.11 661.43,-179.47 663.34,-186.2"/>
</g>
<!-- [root] aws_subnet.demo_private (expand)&#45;&gt;[root] aws_vpc.ec2_demo_vpc (expand) -->
<g id="edge18" class="edge">
<title>[root] aws_subnet.demo_private (expand)&#45;&gt;[root] aws_vpc.ec2_demo_vpc (expand)</title>
<path fill="none" stroke="black" d="M289.11,-220.04C386.56,-207.5 533.45,-188.6 631.08,-176.03"/>
<polygon fill="black" stroke="black" points="631.79,-179.47 641.26,-174.73 630.9,-172.53 631.79,-179.47"/>
</g>
<!-- [root] aws_subnet.demo_public (expand)&#45;&gt;[root] aws_vpc.ec2_demo_vpc (expand) -->
<g id="edge19" class="edge">
<title>[root] aws_subnet.demo_public (expand)&#45;&gt;[root] aws_vpc.ec2_demo_vpc (expand)</title>
<path fill="none" stroke="black" d="M798.63,-215.7C787.55,-206.88 773.91,-196.03 761.89,-186.47"/>
<polygon fill="black" stroke="black" points="763.89,-183.59 753.88,-180.1 759.53,-189.07 763.89,-183.59"/>
</g>
<!-- [root] aws_vpc.ec2_demo_vpc (expand)&#45;&gt;[root] provider[&quot;registry.terraform.io/hashicorp/aws&quot;] -->
<g id="edge20" class="edge">
<title>[root] aws_vpc.ec2_demo_vpc (expand)&#45;&gt;[root] provider[&quot;registry.terraform.io/hashicorp/aws&quot;]</title>
<path fill="none" stroke="black" d="M641.3,-145.33C572.2,-133.45 477.91,-117.23 410.37,-105.62"/>
<polygon fill="black" stroke="black" points="410.63,-102.11 400.18,-103.86 409.44,-109.01 410.63,-102.11"/>
</g>
<!-- [root] var.project&#45;tags -->
<g id="node20" class="node">
<title>[root] var.project&#45;tags</title>
<polygon fill="none" stroke="black" points="790.38,-108 668.38,-108 668.38,-72 796.38,-72 796.38,-102 790.38,-108"/>
<polyline fill="none" stroke="black" points="790.38,-108 790.38,-102 "/>
<polyline fill="none" stroke="black" points="796.38,-102 790.38,-102 "/>
<text text-anchor="middle" x="732.38" y="-86.3" font-family="Times,serif" font-size="14.00">var.project&#45;tags</text>
</g>
<!-- [root] aws_vpc.ec2_demo_vpc (expand)&#45;&gt;[root] var.project&#45;tags -->
<g id="edge21" class="edge">
<title>[root] aws_vpc.ec2_demo_vpc (expand)&#45;&gt;[root] var.project&#45;tags</title>
<path fill="none" stroke="black" d="M732.38,-143.7C732.38,-135.98 732.38,-126.71 732.38,-118.11"/>
<polygon fill="black" stroke="black" points="735.88,-118.1 732.38,-108.1 728.88,-118.1 735.88,-118.1"/>
</g>
<!-- [root] var.resource&#45;name&#45;tag -->
<g id="node21" class="node">
<title>[root] var.resource&#45;name&#45;tag</title>
<polygon fill="none" stroke="black" points="984.38,-108 814.38,-108 814.38,-72 990.38,-72 990.38,-102 984.38,-108"/>
<polyline fill="none" stroke="black" points="984.38,-108 984.38,-102 "/>
<polyline fill="none" stroke="black" points="990.38,-102 984.38,-102 "/>
<text text-anchor="middle" x="902.38" y="-86.3" font-family="Times,serif" font-size="14.00">var.resource&#45;name&#45;tag</text>
</g>
<!-- [root] aws_vpc.ec2_demo_vpc (expand)&#45;&gt;[root] var.resource&#45;name&#45;tag -->
<g id="edge22" class="edge">
<title>[root] aws_vpc.ec2_demo_vpc (expand)&#45;&gt;[root] var.resource&#45;name&#45;tag</title>
<path fill="none" stroke="black" d="M773.97,-143.88C797.41,-134.22 826.89,-122.09 851.68,-111.88"/>
<polygon fill="black" stroke="black" points="853.02,-115.11 860.93,-108.07 850.35,-108.64 853.02,-115.11"/>
</g>
<!-- [root] output.ec2_public_ip -->
<g id="node13" class="node">
<title>[root] output.ec2_public_ip</title>
<polygon fill="none" stroke="black" points="858.38,-468 700.38,-468 700.38,-432 864.38,-432 864.38,-462 858.38,-468"/>
<polyline fill="none" stroke="black" points="858.38,-468 858.38,-462 "/>
<polyline fill="none" stroke="black" points="864.38,-462 858.38,-462 "/>
<text text-anchor="middle" x="782.38" y="-446.3" font-family="Times,serif" font-size="14.00">output.ec2_public_ip</text>
</g>
<!-- [root] output.ec2_public_ip&#45;&gt;[root] aws_instance.demo&#45;ec2 (expand) -->
<g id="edge26" class="edge">
<title>[root] output.ec2_public_ip&#45;&gt;[root] aws_instance.demo&#45;ec2 (expand)</title>
<path fill="none" stroke="black" d="M775.46,-431.7C772.31,-423.81 768.5,-414.3 765,-405.55"/>
<polygon fill="black" stroke="black" points="768.19,-404.09 761.22,-396.1 761.69,-406.69 768.19,-404.09"/>
</g>
<!-- [root] var.aws_region -->
<g id="node16" class="node">
<title>[root] var.aws_region</title>
<polygon fill="none" stroke="black" points="380.88,-36 263.88,-36 263.88,0 386.88,0 386.88,-30 380.88,-36"/>
<polyline fill="none" stroke="black" points="380.88,-36 380.88,-30 "/>
<polyline fill="none" stroke="black" points="386.88,-30 380.88,-30 "/>
<text text-anchor="middle" x="325.38" y="-14.3" font-family="Times,serif" font-size="14.00">var.aws_region</text>
</g>
<!-- [root] provider[&quot;registry.terraform.io/hashicorp/aws&quot;]&#45;&gt;[root] var.aws_region -->
<g id="edge30" class="edge">
<title>[root] provider[&quot;registry.terraform.io/hashicorp/aws&quot;]&#45;&gt;[root] var.aws_region</title>
<path fill="none" stroke="black" d="M325.38,-71.7C325.38,-63.98 325.38,-54.71 325.38,-46.11"/>
<polygon fill="black" stroke="black" points="328.88,-46.1 325.38,-36.1 321.88,-46.1 328.88,-46.1"/>
</g>
<!-- [root] meta.count&#45;boundary (EachMode fixup) -->
<g id="node22" class="node">
<title>[root] meta.count&#45;boundary (EachMode fixup)</title>
<ellipse fill="none" stroke="black" cx="1016.38" cy="-522" rx="222.86" ry="18"/>
<text text-anchor="middle" x="1016.38" y="-518.3" font-family="Times,serif" font-size="14.00">[root] meta.count&#45;boundary (EachMode fixup)</text>
</g>
<!-- [root] meta.count&#45;boundary (EachMode fixup)&#45;&gt;[root] aws_route_table_association.private_1 (expand) -->
<g id="edge23" class="edge">
<title>[root] meta.count&#45;boundary (EachMode fixup)&#45;&gt;[root] aws_route_table_association.private_1 (expand)</title>
<path fill="none" stroke="black" d="M891.78,-507.04C792.6,-495.94 653.25,-480.33 546.78,-468.4"/>
<polygon fill="black" stroke="black" points="546.91,-464.9 536.58,-467.26 546.13,-471.85 546.91,-464.9"/>
</g>
<!-- [root] meta.count&#45;boundary (EachMode fixup)&#45;&gt;[root] aws_route_table_association.public_1 (expand) -->
<g id="edge24" class="edge">
<title>[root] meta.count&#45;boundary (EachMode fixup)&#45;&gt;[root] aws_route_table_association.public_1 (expand)</title>
<path fill="none" stroke="black" d="M1038.65,-504.05C1050.43,-495.09 1065.07,-483.96 1077.89,-474.2"/>
<polygon fill="black" stroke="black" points="1080.16,-476.87 1086,-468.03 1075.92,-471.3 1080.16,-476.87"/>
</g>
<!-- [root] meta.count&#45;boundary (EachMode fixup)&#45;&gt;[root] output.ec2_public_ip -->
<g id="edge25" class="edge">
<title>[root] meta.count&#45;boundary (EachMode fixup)&#45;&gt;[root] output.ec2_public_ip</title>
<path fill="none" stroke="black" d="M961.22,-504.5C927.75,-494.49 884.81,-481.64 849.39,-471.05"/>
<polygon fill="black" stroke="black" points="850.2,-467.63 839.61,-468.12 848.19,-474.34 850.2,-467.63"/>
</g>
<!-- [root] provider[&quot;registry.terraform.io/hashicorp/aws&quot;] (close) -->
<g id="node23" class="node">
<title>[root] provider[&quot;registry.terraform.io/hashicorp/aws&quot;] (close)</title>
<ellipse fill="none" stroke="black" cx="483.38" cy="-522" rx="291.65" ry="18"/>
<text text-anchor="middle" x="483.38" y="-518.3" font-family="Times,serif" font-size="14.00">[root] provider[&quot;registry.terraform.io/hashicorp/aws&quot;] (close)</text>
</g>
<!-- [root] provider[&quot;registry.terraform.io/hashicorp/aws&quot;] (close)&#45;&gt;[root] aws_instance.demo&#45;ec2 (expand) -->
<g id="edge27" class="edge">
<title>[root] provider[&quot;registry.terraform.io/hashicorp/aws&quot;] (close)&#45;&gt;[root] aws_instance.demo&#45;ec2 (expand)</title>
<path fill="none" stroke="black" d="M515.8,-504.01C565.07,-478.19 658.79,-429.09 712.94,-400.72"/>
<polygon fill="black" stroke="black" points="714.69,-403.75 721.92,-396.01 711.44,-397.55 714.69,-403.75"/>
</g>
<!-- [root] provider[&quot;registry.terraform.io/hashicorp/aws&quot;] (close)&#45;&gt;[root] aws_route_table_association.private_1 (expand) -->
<g id="edge28" class="edge">
<title>[root] provider[&quot;registry.terraform.io/hashicorp/aws&quot;] (close)&#45;&gt;[root] aws_route_table_association.private_1 (expand)</title>
<path fill="none" stroke="black" d="M460.64,-503.7C448.94,-494.8 434.52,-483.82 421.87,-474.2"/>
<polygon fill="black" stroke="black" points="423.94,-471.37 413.86,-468.1 419.7,-476.94 423.94,-471.37"/>
</g>
<!-- [root] provider[&quot;registry.terraform.io/hashicorp/aws&quot;] (close)&#45;&gt;[root] aws_route_table_association.public_1 (expand) -->
<g id="edge29" class="edge">
<title>[root] provider[&quot;registry.terraform.io/hashicorp/aws&quot;] (close)&#45;&gt;[root] aws_route_table_association.public_1 (expand)</title>
<path fill="none" stroke="black" d="M617.46,-505.98C717.17,-494.82 853.33,-479.57 956.96,-467.96"/>
<polygon fill="black" stroke="black" points="957.65,-471.4 967.2,-466.81 956.87,-464.45 957.65,-471.4"/>
</g>
<!-- [root] root -->
<g id="node24" class="node">
<title>[root] root</title>
<ellipse fill="none" stroke="black" cx="749.38" cy="-594" rx="58.49" ry="18"/>
<text text-anchor="middle" x="749.38" y="-590.3" font-family="Times,serif" font-size="14.00">[root] root</text>
</g>
<!-- [root] root&#45;&gt;[root] meta.count&#45;boundary (EachMode fixup) -->
<g id="edge31" class="edge">
<title>[root] root&#45;&gt;[root] meta.count&#45;boundary (EachMode fixup)</title>
<path fill="none" stroke="black" d="M792.28,-581.75C833.24,-571.01 895.74,-554.63 944.34,-541.89"/>
<polygon fill="black" stroke="black" points="945.39,-545.23 954.18,-539.31 943.62,-538.46 945.39,-545.23"/>
</g>
<!-- [root] root&#45;&gt;[root] provider[&quot;registry.terraform.io/hashicorp/aws&quot;] (close) -->
<g id="edge32" class="edge">
<title>[root] root&#45;&gt;[root] provider[&quot;registry.terraform.io/hashicorp/aws&quot;] (close)</title>
<path fill="none" stroke="black" d="M706.35,-581.68C665.84,-571.01 604.36,-554.84 556.21,-542.17"/>
<polygon fill="black" stroke="black" points="557.02,-538.76 546.46,-539.6 555.24,-545.53 557.02,-538.76"/>
</g>
</g>
</svg>
